<?xml version="1.0" standalone="no"?>
<!DOCTYPE svg PUBLIC "-//W3C//DTD SVG 20010904//EN"
 "http://www.w3.org/TR/2001/REC-SVG-20010904/DTD/svg10.dtd">
<svg version="1.0" xmlns="http://www.w3.org/2000/svg"
 width="157.000000pt" height="80.000000pt" viewBox="0 0 157.000000 80.000000"
 preserveAspectRatio="xMidYMid meet">

<g transform="translate(0.000000,80.000000) scale(0.100000,-0.100000)"
fill="#000000" stroke="none">
<path d="M810 405 c0 -257 4 -395 10 -395 6 0 10 138 10 395 0 257 -4 395 -10
395 -6 0 -10 -138 -10 -395z"/>
<path d="M400 694 c0 -47 4 -73 10 -69 6 3 10 37 10 76 0 39 -4 69 -10 69 -6
0 -10 -32 -10 -76z"/>
<path d="M552 655 c-17 -36 -28 -65 -23 -65 10 0 71 103 71 120 0 26 -18 4
-48 -55z"/>
<path d="M220 701 c0 -15 63 -121 72 -121 4 0 -7 29 -24 65 -29 59 -48 81 -48
56z"/>
<path d="M433 665 c0 -27 2 -38 4 -22 2 15 2 37 0 50 -2 12 -4 0 -4 -28z"/>
<path d="M896 701 c-3 -4 6 -6 20 -3 26 5 26 4 22 -57 -2 -36 1 -61 7 -61 6 0
9 25 7 61 -4 62 -4 62 22 57 14 -3 26 -1 26 3 0 12 -97 12 -104 0z"/>
<path d="M1030 645 c0 -37 4 -65 10 -65 6 0 10 14 10 30 0 23 5 30 19 30 28 0
47 -26 31 -45 -7 -8 -8 -15 -2 -15 17 0 33 27 26 44 -3 9 -11 16 -17 16 -7 0
-7 4 1 12 18 18 14 36 -10 49 -21 11 -22 11 -9 -4 17 -22 7 -47 -19 -47 -16 0
-20 7 -20 30 0 17 -4 30 -10 30 -6 0 -10 -28 -10 -65z"/>
<path d="M518 641 c-9 -22 -15 -41 -12 -41 8 0 35 62 32 72 -2 6 -11 -8 -20
-31z"/>
<path d="M280 661 c0 -13 28 -71 35 -71 4 0 -24 71 -31 79 -2 2 -4 -1 -4 -8z"/>
<path d="M382 635 c0 -16 2 -22 5 -12 2 9 2 23 0 30 -3 6 -5 -1 -5 -18z"/>
<path d="M495 639 c-4 -6 -5 -12 -2 -15 2 -3 7 2 10 11 7 17 1 20 -8 4z"/>
<path d="M574 628 c-4 -7 -14 -23 -22 -35 -8 -13 -12 -23 -9 -23 9 0 50 61 44
66 -3 3 -8 -1 -13 -8z"/>
<path d="M231 625 c0 -5 11 -23 25 -40 14 -16 21 -21 16 -10 -16 30 -41 61
-41 50z"/>
<path d="M320 621 c0 -6 4 -13 10 -16 6 -3 7 1 4 9 -7 18 -14 21 -14 7z"/>
<path d="M344 580 c-40 -13 -100 -74 -115 -117 -26 -80 11 -185 80 -226 35
-20 41 -21 41 -4 -1 6 -15 21 -33 32 -46 29 -81 103 -72 154 13 75 71 135 140
143 l30 3 3 -87 3 -88 49 0 c58 0 64 -12 24 -56 -27 -28 -27 -28 -35 -6 -15
39 -39 27 -39 -19 0 -41 0 -41 32 -35 17 3 40 14 51 24 23 20 47 72 47 102 0
17 -6 20 -50 20 l-50 0 0 34 c0 43 14 53 37 26 10 -11 26 -20 36 -20 15 0 16
3 6 21 -6 11 -24 28 -39 37 -18 10 -30 27 -32 42 -3 22 -8 25 -43 27 -22 1
-54 -2 -71 -7z"/>
<path d="M470 568 c0 -7 15 -23 34 -35 62 -40 84 -136 49 -210 -19 -40 -74
-80 -118 -85 l-30 -3 -3 149 -3 149 -30 -42 c-30 -40 -32 -41 -50 -25 -25 23
-39 9 -46 -45 -6 -44 13 -104 31 -98 11 4 11 10 -1 72 -6 30 -6 30 15 11 21
-18 22 -18 29 0 5 12 10 -23 13 -86 l5 -105 30 -3 c99 -12 204 84 205 186 0
65 -44 138 -102 168 -22 11 -28 12 -28 2z"/>
<path d="M80 560 c0 -12 119 -82 132 -78 6 2 -14 20 -43 39 -62 40 -89 52 -89
39z"/>
<path d="M625 540 c-21 -16 -34 -30 -29 -30 10 1 82 59 73 60 -3 0 -23 -13
-44 -30z"/>
<path d="M651 530 c-30 -22 -49 -40 -42 -40 14 0 119 59 127 71 14 23 -36 4
-85 -31z"/>
<path d="M180 530 c19 -16 39 -30 45 -30 5 0 -6 13 -25 30 -19 16 -39 29 -45
29 -5 0 6 -13 25 -29z"/>
<path d="M605 549 c-4 -6 -14 -8 -24 -4 -13 5 -14 4 -3 -6 10 -11 15 -10 29 4
10 9 14 17 11 17 -4 0 -10 -5 -13 -11z"/>
<path d="M200 546 c0 -3 9 -10 20 -16 11 -6 20 -8 20 -6 0 3 -9 10 -20 16 -11
6 -20 8 -20 6z"/>
<path d="M664 495 c-10 -8 -14 -14 -9 -14 6 0 19 6 29 14 11 8 15 15 10 15 -6
0 -19 -7 -30 -15z"/>
<path d="M130 495 c0 -7 61 -37 66 -33 2 3 -12 12 -31 21 -19 9 -35 15 -35 12z"/>
<path d="M933 406 c27 -54 34 -61 45 -48 6 9 12 21 12 26 0 6 -5 4 -10 -4 -7
-11 -14 -3 -31 38 -12 28 -27 52 -35 52 -8 0 -2 -21 19 -64z"/>
<path d="M1017 463 c-7 -15 5 -123 14 -123 5 0 9 29 9 65 0 56 -10 82 -23 58z"/>
<path d="M1317 450 c3 -13 0 -20 -8 -20 -10 0 -10 -3 -1 -12 7 -7 12 -27 12
-45 0 -18 3 -33 8 -33 4 0 5 29 4 65 -2 36 -7 65 -12 65 -4 0 -6 -9 -3 -20z"/>
<path d="M160 450 c8 -5 20 -10 25 -10 6 0 3 5 -5 10 -8 5 -19 10 -25 10 -5 0
-3 -5 5 -10z"/>
<path d="M1080 415 c-7 -9 -8 -15 -2 -15 5 0 12 7 16 15 3 8 4 15 2 15 -2 0
-9 -7 -16 -15z"/>
<path d="M1116 407 c1 -12 3 -32 3 -44 1 -13 4 -23 9 -23 9 0 3 78 -7 85 -4 2
-6 -6 -5 -18z"/>
<path d="M1169 428 c-5 -19 -2 -88 4 -88 4 0 7 20 7 45 0 25 -2 45 -5 45 -3 0
-5 -1 -6 -2z"/>
<path d="M1208 419 c6 -7 12 -28 12 -46 0 -18 4 -33 8 -33 15 0 -2 83 -18 88
-12 4 -13 2 -2 -9z"/>
<path d="M1271 416 c-7 -8 -11 -27 -9 -43 2 -22 9 -28 28 -30 14 -1 18 0 8 3
-23 7 -34 50 -18 69 7 8 10 15 7 15 -2 0 -10 -6 -16 -14z"/>
<path d="M1371 388 c-1 -27 3 -48 7 -48 4 0 6 17 4 38 -5 58 -10 62 -11 10z"/>
<path d="M1420 387 c0 -26 3 -47 8 -47 9 0 9 76 -1 86 -4 4 -7 -14 -7 -39z"/>
<path d="M1450 420 c0 -5 5 -10 10 -10 6 0 10 5 10 10 0 6 -4 10 -10 10 -5 0
-10 -4 -10 -10z"/>
<path d="M1491 388 c-1 -27 3 -48 7 -48 4 0 6 17 4 38 -5 58 -10 62 -11 10z"/>
<path d="M1080 375 c-12 -15 -6 -35 12 -35 7 0 7 4 -1 13 -8 10 -7 17 1 25 7
7 9 12 6 12 -3 0 -11 -7 -18 -15z"/>
<path d="M905 350 c-3 -5 -1 -10 4 -10 6 0 11 5 11 10 0 6 -2 10 -4 10 -3 0
-8 -4 -11 -10z"/>
<path d="M158 324 c-39 -21 -35 -28 5 -8 37 19 44 24 31 24 -5 -1 -21 -8 -36
-16z"/>
<path d="M621 336 c10 -9 69 -36 69 -32 0 6 -55 36 -66 36 -4 0 -5 -2 -3 -4z"/>
<path d="M148 287 c-54 -30 -91 -68 -52 -53 29 11 114 69 114 78 0 11 3 12
-62 -25z"/>
<path d="M604 311 c4 -5 1 -11 -5 -13 -6 -2 5 -16 25 -31 20 -16 36 -25 36
-21 0 3 -11 15 -26 26 -41 33 -19 32 27 -1 40 -30 69 -39 69 -23 0 7 -112 72
-125 72 -3 0 -4 -4 -1 -9z"/>
<path d="M194 278 c-43 -32 -49 -38 -39 -38 11 1 84 59 74 60 -4 0 -19 -10
-35 -22z"/>
<path d="M216 265 c-11 -8 -15 -15 -9 -15 6 0 16 7 23 15 16 19 11 19 -14 0z"/>
<path d="M580 276 c0 -2 8 -10 18 -17 15 -13 16 -12 3 4 -13 16 -21 21 -21 13z"/>
<path d="M247 251 c1 -2 -3 -13 -9 -25 -10 -19 -10 -20 5 -7 21 17 22 8 1 -27
l-16 -27 21 25 c24 30 25 32 9 51 -7 8 -12 12 -11 10z"/>
<path d="M544 235 c-4 -8 -10 -12 -15 -9 -16 10 -9 -16 21 -76 17 -33 35 -60
40 -60 15 0 13 8 -21 67 -34 59 -34 84 0 31 11 -18 21 -28 21 -22 0 6 -9 23
-20 37 -25 31 -26 44 -2 26 15 -13 16 -12 3 4 -16 21 -20 21 -27 2z"/>
<path d="M1251 240 c-8 -20 -4 -140 4 -140 6 0 9 22 7 52 -3 57 -8 96 -11 88z"/>
<path d="M907 223 c-16 -16 -4 -43 28 -63 38 -24 41 -30 23 -49 -11 -11 -10
-13 2 -9 8 3 16 15 18 29 2 18 -6 30 -34 47 -22 15 -34 29 -30 38 6 15 3 18
-7 7z"/>
<path d="M950 226 c0 -2 7 -6 15 -10 8 -3 15 -1 15 4 0 6 -7 10 -15 10 -8 0
-15 -2 -15 -4z"/>
<path d="M252 164 c-34 -60 -44 -101 -18 -74 18 19 67 130 58 130 -4 0 -22
-25 -40 -56z"/>
<path d="M294 174 c-8 -20 -13 -39 -10 -42 3 -3 6 -3 6 0 0 3 7 22 15 42 8 20
13 36 10 36 -3 0 -13 -16 -21 -36z"/>
<path d="M500 209 c0 -14 31 -81 36 -76 3 3 -4 22 -15 44 -11 21 -20 35 -21
32z"/>
<path d="M1015 197 c-9 -22 -2 -90 10 -94 6 -2 9 18 8 48 -1 53 -9 72 -18 46z"/>
<path d="M325 189 c-4 -6 -5 -12 -2 -15 2 -3 7 2 10 11 7 17 1 20 -8 4z"/>
<path d="M398 125 c-5 -77 -1 -106 13 -83 10 15 10 80 0 123 -6 24 -8 16 -13
-40z"/>
<path d="M1072 178 c-26 -26 -7 -78 27 -78 11 0 9 5 -7 16 -24 17 -29 43 -10
62 7 7 10 12 7 12 -3 0 -10 -5 -17 -12z"/>
<path d="M1106 176 c3 -9 11 -16 16 -16 13 0 5 23 -10 28 -7 2 -10 -2 -6 -12z"/>
<path d="M1196 176 c3 -9 11 -16 16 -16 13 0 5 23 -10 28 -7 2 -10 -2 -6 -12z"/>
<path d="M433 135 c0 -27 2 -38 4 -22 2 15 2 37 0 50 -2 12 -4 0 -4 -28z"/>
<path d="M1153 146 c2 -35 30 -57 49 -38 11 11 10 12 -3 7 -17 -7 -34 9 -42
40 -4 13 -5 9 -4 -9z"/>
<path d="M901 114 c0 -11 3 -14 6 -6 3 7 2 16 -1 19 -3 4 -6 -2 -5 -13z"/>
</g>
</svg>
